<?xml version="1.0" encoding="UTF-8" standalone="no"?>
<!-- Created with Inkscape (http://www.inkscape.org/) -->

<svg
   width="1080"
   height="1080"
   viewBox="0 0 1080 1080"
   version="1.1"
   id="svg1"
   xmlns="http://www.w3.org/2000/svg"
   xmlns:svg="http://www.w3.org/2000/svg">
  <defs
     id="defs1" />
  <g
     id="layer1">
    <path
       d="m 620.57812,279.44968 c 17.01697,12.83848 30.5278,26.06297 42.05058,44.27895 -2.8037,0.0385 -5.60738,0.0771 -8.49604,0.1167 -10.43052,0.15341 -20.85964,0.35734 -31.28906,0.57631 -4.50863,0.0877 -9.01756,0.16159 -13.52662,0.22179 -6.49247,0.0887 -12.98248,0.22708 -19.4739,0.37455 -3.01022,0.0264 -3.01022,0.0264 -6.08121,0.0512 -11.63536,0.32068 -19.50694,1.65551 -28.70581,9.22134 -2.99611,6.20168 -2.99611,6.20168 -2.56125,13.2022 2.9134,7.35387 2.9134,7.35387 7.68375,13.2022 7.41524,2.54816 12.09335,2.97533 19.80088,2.98713 3.73789,0.0159 3.73789,0.0159 7.55134,0.0322 2.7304,-0.002 5.46083,-0.003 8.27397,-0.005 4.31759,0.0132 4.31759,0.0132 8.72238,0.0278 6.25962,0.0185 12.51925,0.0335 18.77888,0.0431 9.90241,0.0185 19.80451,0.0602 29.7068,0.10905 28.15787,0.13862 56.31558,0.26642 84.47377,0.3061 17.21395,0.0237 34.42698,0.10404 51.64065,0.21467 6.56616,0.0325 13.13242,0.046 19.69862,0.0401 9.17977,-0.005 18.35715,0.0523 27.5366,0.12542 2.72005,-0.0185 5.44008,-0.0349 8.24255,-0.0528 11.3745,0.14945 18.41656,0.28889 28.3936,6.25341 6.67969,8.05794 7.33663,13.73967 7.33663,24.24378 -3.4465,7.78286 -5.34163,11.99491 -12.80627,15.84265 -5.22828,0.291 -10.46571,0.41322 -15.70143,0.45833 -4.94944,0.0533 -4.94944,0.0533 -9.99887,0.10799 -1.76875,0.0132 -3.5375,0.0267 -5.35986,0.0404 -5.53349,0.0433 -11.06654,0.10456 -16.59979,0.17137 -15.7336,0.18694 -31.46739,0.34555 -47.20147,0.48087 -9.6216,0.084 -19.24267,0.19301 -28.86386,0.31735 -3.66585,0.0422 -7.33184,0.0747 -10.99787,0.0974 -5.13153,0.0322 -10.26284,0.0988 -15.39406,0.16662 -2.91931,0.0272 -5.83865,0.0544 -8.84643,0.0824 -7.36409,0.70286 -11.64756,1.80583 -17.76284,5.9984 -4.65884,9.60579 -3.20807,19.12307 0,29.04484 1.47967,0.0159 2.95936,0.0309 4.48389,0.047 15.41549,0.16899 30.82965,0.39189 46.24406,0.64607 5.75097,0.0877 11.50213,0.16185 17.25343,0.22179 8.27228,0.0887 16.5426,0.22681 24.81404,0.37452 2.56704,0.0159 5.13408,0.0338 7.7789,0.0512 22.56505,0.48956 22.56505,0.48956 32.61086,9.22137 4.08819,8.42915 3.87942,17.25425 2.56125,26.4044 -4.78993,6.41941 -8.40448,9.61302 -15.36752,13.2022 -7.00377,0.31844 -13.95355,0.49017 -20.96025,0.55698 -4.26713,0.0742 -8.53422,0.14971 -12.80127,0.22681 -6.73935,0.10905 -13.47819,0.20648 -20.21802,0.2759 -6.49649,0.0729 -12.99078,0.19381 -19.4864,0.32231 -2.01719,0.008 -4.03436,0.0158 -6.11266,0.0264 -10.72845,0.19064 -10.72845,0.19064 -20.29089,4.69401 -4.47669,7.73618 -3.6367,14.23298 -2.58064,22.94269 7.17891,7.21806 12.56791,8.94594 22.45097,9.27248 2.27813,0.0937 4.55624,0.18721 6.9034,0.28367 2.35735,0.0597 4.7147,0.11908 7.14348,0.1806 2.39698,0.0903 4.79395,0.18034 7.26357,0.27331 5.90256,0.21731 11.8042,0.40005 17.70866,0.55183 -7.26879,7.87142 -13.6252,14.50642 -23.21136,19.14317 -2.50099,1.24575 -2.50099,1.24575 -5.05248,2.51667 -12.06758,5.04551 -23.5237,5.0621 -36.40781,4.90956 -1.90834,-0.0132 -3.81668,-0.0237 -5.78282,-0.0362 -4.68907,-0.0309 -9.37801,-0.0784 -14.06689,-0.12885 -0.66032,1.94011 -1.32066,3.8802 -2.00098,5.8791 -11.65591,27.34474 -39.01198,45.40015 -64.59161,56.99638 -37.48146,14.98297 -76.08546,15.68958 -113.49553,-0.54665 -10.52312,-5.25141 -19.9649,-10.062 -28.73407,-18.11173 -5.91298,-5.33134 -5.91298,-5.33134 -12.76625,-4.2082 -3.14973,1.10784 -3.14973,1.10784 -6.3631,2.23816 -1.9942,0.65692 -3.98836,1.31384 -6.04298,1.99066 -2.02057,0.70455 -4.04117,1.40912 -6.12298,2.13504 -22.18109,6.91088 -45.03331,5.70974 -66.06233,-4.71359 -26.33937,-15.40422 -41.11262,-33.63841 -52.39563,-62.78198 0,-2.61404 0,-5.22807 0,-7.92132 -1.51545,0.92239 -3.03089,1.8448 -4.59226,2.79514 -2.02389,1.20151 -4.04777,2.40301 -6.13299,3.64093 -1.99089,1.19469 -3.98175,2.38939 -6.03295,3.62031 -17.37161,8.68385 -35.67763,7.65939 -53.67627,1.8256 -19.22077,-7.86006 -32.14923,-20.65046 -40.98005,-39.93666 -6.79713,-20.30231 -7.62452,-43.91538 0.16008,-64.03067 9.61609,-18.61365 21.71728,-33.1455 41.02006,-40.96809 10.60494,-2.75084 20.97418,-2.44902 31.81557,-1.60901 0.15855,-1.74269 0.31696,-3.48538 0.48024,-5.28088 5.4546,-20.76279 18.00031,-33.74166 35.37731,-44.88749 16.69405,-9.26701 35.14132,-9.00373 53.17602,-4.66203 7.40997,2.613 14.16279,6.21852 21.10033,9.94292 0.78248,-1.91971 1.56495,-3.83939 2.37116,-5.81724 17.18836,-38.93398 45.57227,-67.86159 84.39129,-83.62808 44.23613,-16.59319 95.11097,-13.01473 134.99606,13.48068 z"
       fill="#50bed7"
       id="path1"
       style="stroke-width:2.60054" />
    <path
       d="m 601.15862,664.34541 c 14.05168,-0.16345 28.10335,-0.32676 42.58083,-0.49508 4.40641,-0.0721 8.81284,-0.14417 13.3528,-0.21863 3.53296,-0.0237 7.06593,-0.0433 10.59892,-0.0599 1.80166,-0.0406 3.6033,-0.0811 5.45954,-0.12278 14.27501,-0.008 24.75411,3.28257 35.23037,13.44879 1.22489,1.57589 2.44982,3.15182 3.71182,4.77548 1.88687,2.37407 1.88687,2.37407 3.81186,4.79612 9.12445,12.71567 7.12354,28.78325 5.63276,43.88699 -4.3727,12.91719 -11.20243,20.84026 -22.57104,27.72462 -2.69413,1.30702 -5.38824,2.61404 -8.164,3.96067 1.70035,1.91286 3.40066,3.82575 5.15253,5.79658 33.26628,37.54909 33.26628,37.54909 33.26628,44.37183 -30.49114,4.02424 -30.49114,4.02424 -42.83098,-5.22931 -5.8173,-6.79953 -10.97991,-13.79152 -16.07785,-21.17509 -3.0074,-3.55157 -6.04438,-7.07701 -9.12447,-10.56176 -6.24305,-7.92132 -6.24305,-7.92132 -6.24305,-13.2022 -8.45214,0 -16.90428,0 -25.61253,0 0,16.55556 0,33.11112 0,50.16836 -9.29736,0 -18.59471,0 -28.17379,0 0,-48.79534 0,-97.59067 0,-147.86465 z m 28.17379,26.4044 c 0,14.81287 0,29.62574 0,44.88749 7.84522,0.2144 15.68488,0.37117 23.53151,0.49508 2.21374,0.0663 4.42746,0.13281 6.70828,0.2012 12.5033,0.14813 21.15769,-0.0237 31.23028,-8.61753 3.65394,-7.5338 3.35612,-12.76534 2.56126,-21.12352 -5.50903,-8.81275 -8.20659,-12.50172 -17.92877,-15.84264 -3.60689,-0.21176 -7.22266,-0.28427 -10.83531,-0.25797 -3.08288,0.0132 -3.08288,0.0132 -6.22805,0.0264 -3.20174,0.0333 -3.20174,0.0333 -6.46816,0.067 -3.24631,0.0185 -3.24631,0.0185 -6.55821,0.0362 -5.33768,0.0312 -10.67529,0.0784 -16.01283,0.12885 z"
       fill="#50bed7"
       id="path2"
       style="stroke-width:2.60054" />
    <path
       d="m 744.5888,664.34541 c 12.14995,-0.21784 24.29989,-0.43567 36.81802,-0.66011 3.77828,-0.0961 7.55657,-0.19222 11.44934,-0.29137 23.37984,-0.20173 41.99731,1.89034 60.89605,16.81474 16.29349,19.57871 23.18383,38.74094 22.16086,64.65984 -2.23984,21.14457 -8.74082,35.35238 -22.16086,51.47829 -22.20694,17.5369 -45.30985,17.21139 -72.34539,16.52337 -12.14994,-0.21783 -24.29989,-0.43567 -36.81802,-0.66011 0,-48.79534 0,-97.59067 0,-147.86465 z m 28.17379,26.4044 c 0,30.49709 0,60.99417 0,92.41541 40.68215,3.71174 40.68215,3.71174 61.47008,-10.56177 10.37876,-12.10749 13.41395,-23.76203 12.80627,-39.60659 -2.04844,-12.48791 -5.51779,-22.84063 -14.72721,-31.52026 -20.39674,-13.34428 -33.80106,-10.72679 -59.54914,-10.72679 z"
       fill="#50bed7"
       id="path3"
       style="stroke-width:2.60054" />
    <path
       d="m 76.101691,664.34541 c 9.297356,0 18.594704,0 28.173789,0 0,20.04094 0,40.08188 0,60.73012 22.82077,0 45.64153,0 69.15384,0 0,-20.04093 0,-40.08188 0,-60.73012 9.29735,0 18.5947,0 28.17378,0 0,48.79533 0,97.59067 0,147.86465 -9.29734,0 -18.59469,0 -28.17378,0 0,-20.04094 0,-40.08188 0,-60.73013 -22.82076,0 -45.64153,0 -69.15384,0 0,20.04095 0,40.08189 0,60.73013 -9.297352,0 -18.5947,0 -28.173789,0 0,-48.79534 0,-97.59067 0,-147.86465 z"
       fill="#131313"
       id="path4"
       style="stroke-width:2.60054" />
    <path
       d="m 900.82526,664.34541 c 13.52341,-0.21784 27.04683,-0.43567 40.98006,-0.66011 6.33907,-0.14417 6.33907,-0.14417 12.80624,-0.29137 19.25603,-0.25639 34.85661,-0.19223 51.22504,11.51324 14.4583,15.68976 16.5505,28.23576 16.1579,49.46699 -1.2989,14.17147 -5.1592,24.13816 -15.3474,33.86158 -11.92735,9.3344 -21.65421,12.07924 -36.62804,11.98515 -2.39362,-0.008 -4.78733,-0.0159 -7.25351,-0.0264 -2.47947,-0.0211 -4.95903,-0.0444 -7.5137,-0.067 -3.7787,-0.0185 -3.7787,-0.0185 -7.6337,-0.0362 -6.20648,-0.0309 -12.41278,-0.0784 -18.61911,-0.12885 0,13.94152 0,27.88305 0,42.24704 -9.29735,0 -18.59469,0 -28.17378,0 0,-48.79533 0,-97.59067 0,-147.86465 z m 28.17378,29.04485 c 0,16.55555 0,33.11111 0,50.16835 6.86732,0.16345 13.73468,0.32676 20.8102,0.49508 3.19981,0.10826 3.19981,0.10826 6.46444,0.21864 12.43176,0.14232 20.92037,-1.43384 31.63414,-8.63493 6.32,-9.77298 5.90941,-14.84519 5.12255,-26.4044 -3.04191,-8.92554 -4.86193,-10.38266 -12.80624,-15.84264 -5.69845,-0.72554 -5.69845,-0.72554 -11.95585,-0.51571 -2.2864,0.0159 -4.57279,0.0341 -6.92843,0.0515 -2.3788,0.0444 -4.75761,0.0885 -7.20855,0.13413 -2.40852,0.0238 -4.81705,0.0478 -7.29857,0.0721 -5.94483,0.0623 -11.88933,0.15683 -17.83369,0.25796 z"
       fill="#50bed7"
       id="path5"
       style="stroke-width:2.60054" />
    <path
       d="m 308.02518,706.35524 c 11.13048,6.72052 18.0964,14.80851 24.20184,26.64162 2.56126,10.56175 2.56126,10.56175 2.56126,36.96616 -26.20163,0 -52.40325,0 -79.39886,0 3.55966,13.64278 3.55966,13.64278 13.12642,16.8328 16.61197,2.76219 30.06164,-0.19354 45.78241,-6.27104 5.07129,6.09941 10.14256,12.19884 15.36752,18.48308 -17.1144,15.56782 -33.08096,17.05357 -55.27705,16.66778 -15.62914,-1.47313 -26.08575,-7.09909 -36.60791,-18.97816 -10.72011,-16.25226 -12.35573,-31.26511 -10.56517,-50.49843 2.86647,-15.20531 9.18358,-24.01495 20.71013,-33.72747 17.35014,-11.462 40.71167,-13.24804 60.09941,-6.11634 z m -44.95199,29.28206 c -3.80347,6.53508 -3.80347,6.53508 -7.68377,13.2022 17.74949,0 35.49897,0 53.78632,0 -5.83669,-14.9539 -5.83669,-14.9539 -12.32603,-19.47325 -13.35159,-3.93267 -22.81572,-2.58544 -33.77652,6.27105 z"
       fill="#131313"
       id="path6"
       style="stroke-width:2.60054" />
    <path
       d="m 543.59046,708.98535 c 13.19893,8.13292 24.46887,19.33994 29.39437,34.57326 1.61695,19.97583 2.55219,39.22662 -10.24501,55.44925 -13.48981,12.61101 -24.81296,16.26234 -43.06107,16.50275 -4.62061,0.10219 -4.62061,0.10219 -9.33456,0.20622 -11.95816,-1.14173 -20.19828,-4.84283 -29.12425,-13.14031 -1.20179,-1.50445 -2.40358,-3.00886 -3.64179,-4.55891 -1.2282,-1.49078 -2.45639,-2.98161 -3.72181,-4.51761 -9.79039,-14.89641 -10.32323,-29.8418 -8.44415,-47.30102 4.54605,-16.38903 14.59848,-27.58202 28.17379,-36.96616 15.33617,-5.27012 34.70621,-5.91153 50.00448,-0.24741 z m -42.32072,29.29238 c -7.60918,8.12462 -9.81661,15.1428 -10.24501,26.40441 3.21468,12.22059 5.55528,17.09056 16.00783,23.92898 11.43036,2.94594 16.79147,2.00027 27.53348,-2.80546 8.14864,-5.96882 9.95308,-9.47826 12.64618,-19.47325 0.21489,-12.84508 -3.8091,-19.86157 -10.72525,-30.20003 -12.32618,-8.62281 -24.07275,-7.10968 -35.21723,2.14535 z"
       fill="#131313"
       id="path7"
       style="stroke-width:2.60054" />
    <path
       d="m 416.74838,664.34541 c 8.45214,0 16.90428,0 25.61253,0 0,48.79533 0,97.59067 0,147.86465 -8.45213,0 -16.90427,0 -25.61253,0 0,-48.79534 0,-97.59067 0,-147.86465 z"
       fill="#131313"
       id="path8"
       style="stroke-width:2.60054" />
    <path
       d="m 360.40081,664.34541 c 8.45214,0 16.90427,0 25.61253,0 0,48.79533 0,97.59067 0,147.86465 -8.45214,0 -16.90427,0 -25.61253,0 0,-48.79534 0,-97.59067 0,-147.86465 z"
       fill="#131313"
       id="path9"
       style="stroke-width:2.60054" />
    <path
       d="m 706.17001,281.48158 c 6.40313,3.79564 6.40313,3.79564 10.24501,10.56176 1.93505,11.32512 1.82466,20.41076 -3.6818,30.53009 -9.81586,5.67671 -18.62902,5.79052 -29.61449,3.79564 -6.56322,-3.96066 -6.56322,-3.96066 -10.24502,-10.56177 -1.80507,-13.02613 -1.97321,-18.07217 5.1225,-29.04484 10.64361,-7.3151 15.53831,-7.14175 28.1738,-5.28088 z"
       fill="#50bed7"
       id="path10"
       style="stroke-width:2.60054" />
    <path
       d="m 872.65147,447.82931 c 7.84919,5.39458 9.7879,9.08523 12.64619,18.31806 0.19209,9.69834 -1.94338,13.61809 -7.52368,21.28855 -5.12251,5.28088 -5.12251,5.28088 -14.88729,6.43607 -8.72143,-0.26193 -10.80104,-1.20893 -18.40901,-6.6011 -6.47933,-9.81074 -7.14029,-14.59041 -5.12251,-26.23937 9.52218,-14.4181 17.48059,-15.53144 33.2963,-13.20221 z"
       fill="#50bed7"
       id="path11"
       style="stroke-width:2.60054" />
  </g>
</svg>
